<svg xmlns="http://www.w3.org/2000/svg" id="svg2" viewBox="0 0 349.57 304.16" version="1.0" xmlns:sodipodi="http://sodipodi.sourceforge.net/DTD/sodipodi-0.dtd" sodipodi:version="0.32" xmlns:inkscape="http://www.inkscape.org/namespaces/inkscape" inkscape:version="0.44.1" sodipodi:docbase="C:\Documents and Settings\Im\Plocha\11.Naradi a nastroje" inkscape:label="Pozadí" sodipodi:docname="matice.svg">
  <sodipodi:namedview inkscape:document-units="px" inkscape:pageopacity="0.0" inkscape:window-width="1024" inkscape:cy="526.18109" inkscape:cx="372.04724" inkscape:current-layer="layer1" borderopacity="1.0" inkscape:window-x="-4" inkscape:zoom="0.49032549" inkscape:window-height="712" pagecolor="#ffffff" inkscape:window-y="-4" inkscape:pageshadow="2" bordercolor="#666666" id="base" />
  <g id="layer1" transform="translate(-190.28 -308.84)" inkscape:label="Vrstva 1" inkscape:groupmode="layer">
    <rect id="rect1873" style="fill: #a4712a; stroke: black;" x="-173.35" y="181.51" width="12.237" height="0" rx="0.15" ry="0" />
    
      <path id="path4594" style="opacity: 1; fill: hsla(216, 3%, 65%, 1);" transform="matrix(1 0 0 1 99.934 -118.29)" d="m 391.58 659.19 c 4.89 -8.34 -48.36 76.69 -39.96 71.9 c 8.41 -4.78 -95.24 -2.6 -85.57 -2.54 s -97.56 -3.38 -89.21 1.51 c 8.35 4.88 -47.76 -86.53 -42.97 -78.12 c 4.79 8.4 -43.468 -83.45 -43.525 -73.77 c -0.057 9.67 50.015 -85.5 45.125 -77.15 c -4.88 8.35 51.57 -78.49 43.17 -73.7 c -8.41 4.79 96.84 2.84 87.16 2.78 c -9.67 -0.05 95.97 3.14 87.62 -1.74 c -8.35 -4.89 46.63 85.37 41.84 76.97 c -4.79 -8.41 44.6 84.59 44.65 74.92 c 0.06 -9.68 -53.22 87.29 -48.33 78.94 Z" sodipodi:nodetypes="csssssssssssc" />
      <path id="path4597" style="fill: #ccc;" transform="matrix(1 0 0 1 681.184 118.25)" d="m -236.58 338.55 a 81.578 81.578 0 1 1 -163.15 0 a 81.578 81.578 0 1 1 163.15 0 Z" sodipodi:type="arc" sodipodi:cy="338.55063" sodipodi:cx="-318.15601" sodipodi:ry="81.578461" sodipodi:rx="81.578461" />
      <path id="path4601" style="fill: white;" transform="matrix(0.85 0 0 0.825 633.454 177.49)" d="m -236.58 338.55 a 81.578 81.578 0 1 1 -163.15 0 a 81.578 81.578 0 1 1 163.15 0 Z" sodipodi:type="arc" sodipodi:cy="338.55063" sodipodi:cx="-318.15601" sodipodi:ry="81.578461" sodipodi:rx="81.578461" />
    
  </g>
  <metadata>
    <rdf:RDF xmlns:rdf="http://www.w3.org/1999/02/22-rdf-syntax-ns#">
      <cc:Work xmlns:cc="http://web.resource.org/cc/">
        <dc:format xmlns:dc="http://purl.org/dc/elements/1.1/">image/svg+xml</dc:format>
        <dc:type xmlns:dc="http://purl.org/dc/elements/1.1/" rdf:resource="http://purl.org/dc/dcmitype/StillImage" />
        <cc:license rdf:resource="http://creativecommons.org/licenses/publicdomain/" />
        <dc:publisher xmlns:dc="http://purl.org/dc/elements/1.1/">
          <cc:Agent rdf:about="http://openclipart.org/">
            <dc:title>Openclipart</dc:title>
          </cc:Agent>
        </dc:publisher>
        <dc:title xmlns:dc="http://purl.org/dc/elements/1.1/">nut</dc:title>
        <dc:date xmlns:dc="http://purl.org/dc/elements/1.1/">2006-12-31T02:47:51</dc:date>
        <dc:description xmlns:dc="http://purl.org/dc/elements/1.1/" />
        <dc:source xmlns:dc="http://purl.org/dc/elements/1.1/">https://openclipart.org/detail/2573/nut-by-machovka</dc:source>
        <dc:creator xmlns:dc="http://purl.org/dc/elements/1.1/">
          <cc:Agent>
            <dc:title>Machovka</dc:title>
          </cc:Agent>
        </dc:creator>
        <dc:subject xmlns:dc="http://purl.org/dc/elements/1.1/">
          <rdf:Bag>
            <rdf:li>bolt</rdf:li>
            <rdf:li>mechanic</rdf:li>
            <rdf:li>nut</rdf:li>
            <rdf:li>repair</rdf:li>
            <rdf:li>tool</rdf:li>
            <rdf:li>work</rdf:li>
          </rdf:Bag>
        </dc:subject>
      </cc:Work>
      <cc:License xmlns:cc="http://web.resource.org/cc/" rdf:about="http://creativecommons.org/licenses/publicdomain/">
        <cc:permits rdf:resource="http://creativecommons.org/ns#Reproduction" />
        <cc:permits rdf:resource="http://creativecommons.org/ns#Distribution" />
        <cc:permits rdf:resource="http://creativecommons.org/ns#DerivativeWorks" />
      </cc:License>
    </rdf:RDF>
  </metadata>
</svg>